<?xml version="1.0" standalone="no"?>
<!DOCTYPE svg PUBLIC "-//W3C//DTD SVG 20010904//EN"
 "http://www.w3.org/TR/2001/REC-SVG-20010904/DTD/svg10.dtd">
<svg version="1.0" xmlns="http://www.w3.org/2000/svg"
 width="900.000000pt" height="900.000000pt" viewBox="0 0 900.000000 900.000000"
 preserveAspectRatio="xMidYMid meet">
<metadata>
Created by potrace 1.10, written by Peter Selinger 2001-2011
</metadata>
<g transform="translate(0.000000,900.000000) scale(0.100000,-0.100000)"
fill="#ff0000" stroke="none">
<path d="M4480 7891 c-8 -5 -46 -19 -85 -31 -38 -13 -74 -27 -79 -32 -6 -4
-19 -8 -29 -8 -10 0 -35 -7 -55 -16 -86 -37 -99 -42 -129 -48 -18 -4 -35 -12
-38 -17 -4 -5 -16 -9 -28 -9 -12 0 -34 -6 -49 -14 -15 -8 -40 -17 -57 -21 -17
-4 -33 -11 -36 -16 -4 -5 -16 -9 -29 -9 -12 0 -31 -7 -42 -15 -10 -8 -29 -15
-40 -15 -19 0 -40 -8 -139 -50 -11 -4 -29 -11 -40 -14 -25 -6 -104 -34 -130
-45 -11 -5 -29 -12 -40 -14 -11 -3 -45 -15 -75 -27 -30 -12 -72 -25 -92 -30
-21 -4 -43 -12 -50 -17 -7 -6 -44 -21 -83 -33 -38 -13 -74 -27 -80 -32 -5 -4
-19 -8 -32 -8 -13 0 -40 -9 -60 -20 -21 -11 -45 -20 -55 -20 -9 0 -20 -4 -23
-10 -3 -5 -14 -10 -23 -10 -9 0 -30 -7 -46 -15 -15 -8 -37 -15 -47 -15 -10 0
-40 -10 -66 -21 -27 -12 -57 -25 -68 -29 -11 -4 -36 -13 -55 -19 -19 -7 -52
-17 -73 -22 -21 -5 -45 -14 -55 -19 -24 -15 -150 -60 -197 -71 -21 -6 -44 -14
-50 -18 -5 -4 -35 -16 -65 -25 -30 -10 -68 -24 -83 -32 -16 -8 -37 -14 -48
-14 -10 0 -36 -9 -56 -20 -21 -11 -45 -20 -55 -20 -9 0 -20 -4 -23 -10 -3 -5
-14 -10 -23 -10 -9 0 -30 -7 -46 -15 -15 -8 -38 -15 -50 -15 -12 0 -30 -6 -41
-14 -11 -7 -49 -22 -85 -34 -90 -29 -127 -42 -185 -65 -27 -11 -59 -23 -70
-27 -70 -25 -94 -33 -128 -41 -21 -5 -49 -17 -63 -25 -21 -14 -24 -23 -24 -78
1 -33 5 -81 11 -106 11 -52 34 -232 49 -399 6 -63 14 -119 17 -125 4 -5 10
-66 13 -135 4 -69 13 -144 19 -166 10 -38 18 -103 41 -355 6 -57 14 -118 19
-135 5 -16 12 -82 14 -145 3 -63 10 -128 16 -145 9 -28 17 -93 41 -354 5 -57
14 -120 20 -140 5 -20 10 -67 11 -106 0 -38 5 -95 10 -125 5 -30 14 -93 19
-140 16 -136 29 -239 41 -330 6 -47 14 -139 18 -205 5 -66 14 -138 20 -160 10
-38 18 -104 41 -355 6 -58 14 -118 20 -134 5 -16 10 -65 11 -110 0 -45 5 -103
10 -131 5 -27 14 -93 20 -145 18 -174 25 -194 70 -223 23 -15 47 -27 54 -27 7
0 18 -7 25 -15 7 -8 17 -15 22 -15 6 0 30 -13 55 -30 24 -16 48 -30 54 -30 5
0 27 -11 49 -25 36 -23 102 -59 200 -111 19 -11 37 -22 40 -25 3 -3 28 -16 55
-30 28 -13 79 -41 114 -62 35 -21 74 -43 85 -48 12 -5 48 -24 81 -43 76 -44
92 -53 190 -106 44 -23 85 -46 90 -50 15 -11 124 -71 167 -92 20 -10 40 -22
43 -28 3 -5 12 -10 20 -10 8 0 31 -12 52 -26 21 -14 61 -37 88 -50 28 -14 66
-34 85 -46 19 -11 64 -37 100 -56 36 -19 81 -45 100 -57 19 -12 69 -38 110
-59 41 -21 82 -45 91 -52 8 -8 23 -14 32 -14 9 0 18 -4 22 -9 3 -6 18 -16 33
-24 57 -29 167 -90 177 -97 9 -7 43 -26 175 -96 19 -11 40 -25 48 -31 7 -7 22
-13 33 -13 10 0 19 -4 19 -9 0 -5 10 -13 23 -16 12 -4 36 -17 52 -29 17 -12
69 -41 116 -65 l86 -43 49 27 c77 41 83 44 102 55 9 5 37 21 62 35 25 14 52
29 60 34 8 5 22 12 30 15 8 4 29 15 45 25 17 11 50 30 75 42 25 12 78 42 117
66 40 23 76 43 79 43 4 0 32 15 63 34 67 41 154 88 236 129 33 17 62 34 65 37
3 4 23 17 45 29 22 12 47 25 55 30 8 5 26 14 40 20 14 6 48 24 75 41 28 16 64
36 80 44 17 8 53 29 80 45 28 17 56 33 63 36 6 3 18 7 25 10 6 3 26 14 42 25
17 10 50 29 75 42 25 13 60 33 79 45 18 13 59 35 90 49 31 15 58 29 61 33 3 3
21 14 40 25 19 10 62 33 95 51 33 18 86 46 118 64 31 17 74 41 95 54 20 13 57
34 82 46 25 12 59 31 75 41 17 10 57 33 90 49 85 43 146 78 159 91 5 5 18 10
28 10 9 0 21 6 25 13 4 6 29 22 55 35 26 13 50 27 53 33 4 5 12 9 20 9 27 0
84 45 95 75 6 17 14 75 17 130 3 55 10 109 16 119 5 11 13 76 17 145 8 118 16
191 41 371 6 41 13 113 16 160 3 47 10 94 15 104 6 11 14 76 18 145 4 69 13
162 19 206 22 160 33 252 38 330 3 44 9 88 15 98 5 10 13 75 18 145 9 130 20
230 45 408 8 56 15 125 15 154 0 28 5 61 11 72 6 12 15 78 19 147 8 118 14
179 41 376 6 44 13 114 16 155 2 41 9 87 15 102 5 15 14 82 18 150 8 124 18
214 45 408 8 58 17 130 19 160 2 30 9 75 15 100 5 25 10 80 11 122 0 71 -2 78
-26 97 -15 12 -39 21 -53 21 -15 0 -31 4 -37 8 -5 5 -40 19 -79 32 -38 12 -75
26 -80 31 -6 4 -29 12 -50 18 -66 16 -206 68 -218 80 -6 6 -26 11 -43 11 -18
0 -35 4 -38 9 -3 5 -38 19 -78 32 -40 13 -82 29 -93 36 -11 7 -29 13 -41 13
-12 0 -35 6 -51 14 -15 8 -53 22 -83 32 -30 9 -61 21 -68 27 -7 5 -29 13 -50
17 -39 8 -155 50 -209 75 -17 8 -38 15 -47 15 -8 0 -30 6 -48 14 -42 18 -187
72 -213 79 -42 12 -181 63 -202 75 -12 7 -32 12 -45 12 -13 0 -32 7 -42 15
-11 8 -28 15 -38 15 -17 0 -68 20 -120 46 -14 8 -35 14 -47 14 -11 0 -35 6
-53 14 -44 19 -188 72 -213 79 -34 9 -159 56 -177 67 -10 5 -34 14 -55 19 -36
9 -168 55 -223 78 -49 20 -95 35 -123 40 -15 3 -30 9 -33 14 -3 5 -13 9 -22 9
-10 0 -34 9 -55 20 -20 11 -47 20 -59 20 -13 0 -32 7 -42 15 -11 8 -28 15 -38
15 -16 0 -65 19 -110 41 -21 11 -19 11 -38 0z m24 -787 c9 -3 16 -12 16 -19 0
-7 13 -39 30 -71 16 -32 30 -65 30 -71 0 -7 13 -39 29 -70 16 -32 37 -76 46
-98 9 -22 25 -58 35 -80 10 -22 30 -67 45 -100 31 -70 53 -118 89 -196 14 -31
26 -63 26 -71 0 -9 7 -21 15 -28 8 -7 15 -18 15 -25 0 -7 13 -39 30 -71 16
-32 30 -64 30 -71 0 -6 13 -38 30 -70 16 -32 36 -76 45 -98 9 -22 30 -69 47
-105 16 -36 35 -78 42 -95 16 -36 44 -99 80 -176 14 -31 26 -63 26 -71 0 -9 7
-21 15 -28 8 -7 15 -18 15 -25 0 -7 13 -39 30 -71 16 -32 30 -64 30 -71 0 -6
13 -38 30 -70 16 -32 36 -76 45 -98 9 -22 30 -69 47 -105 16 -36 35 -78 42
-95 16 -36 44 -99 80 -176 14 -31 26 -63 26 -71 0 -9 7 -21 15 -28 8 -7 15
-18 15 -25 0 -7 13 -39 30 -71 16 -32 30 -63 30 -68 0 -5 13 -37 29 -70 16
-34 37 -79 46 -101 9 -22 30 -69 47 -105 16 -36 35 -78 42 -95 16 -36 44 -99
80 -176 14 -31 26 -63 26 -71 0 -9 7 -21 15 -28 8 -7 15 -18 15 -25 0 -7 13
-39 30 -71 16 -32 30 -64 30 -71 0 -6 13 -38 30 -70 16 -32 36 -76 45 -98 9
-22 30 -69 47 -105 16 -36 35 -78 42 -95 16 -36 44 -99 80 -176 14 -31 26 -63
26 -71 0 -9 7 -21 15 -28 8 -7 15 -18 15 -25 0 -7 13 -39 30 -71 16 -32 30
-65 30 -71 0 -7 13 -39 29 -70 16 -32 37 -76 46 -98 9 -22 30 -69 47 -105 17
-36 37 -81 45 -100 8 -19 21 -48 29 -64 12 -24 12 -31 2 -37 -7 -5 -187 -9
-401 -9 l-387 0 -21 47 c-29 66 -44 100 -64 153 -9 25 -23 58 -31 73 -8 16
-14 35 -14 44 0 8 -7 27 -15 41 -8 15 -28 63 -45 107 -17 44 -37 94 -44 110
-7 17 -21 47 -30 68 -9 21 -16 44 -16 51 0 8 -7 19 -15 26 -8 7 -15 24 -15 37
0 14 -7 37 -15 51 -15 28 -69 163 -79 197 -14 49 11 48 -917 40 l-868 -8 -6
-21 c-6 -20 -20 -58 -52 -136 -8 -19 -21 -47 -29 -62 -7 -14 -14 -34 -14 -45
0 -10 -7 -27 -15 -37 -8 -11 -15 -25 -15 -32 0 -7 -13 -42 -30 -77 -16 -36
-30 -72 -30 -81 0 -8 -4 -17 -9 -21 -5 -3 -12 -19 -16 -36 -4 -17 -13 -42 -21
-57 -8 -15 -14 -32 -14 -38 0 -6 -7 -17 -15 -24 -8 -7 -15 -23 -15 -35 0 -13
-6 -36 -14 -52 -8 -15 -19 -39 -25 -53 -5 -14 -19 -46 -30 -72 -12 -26 -21
-54 -21 -62 0 -8 -4 -17 -9 -21 -5 -3 -12 -18 -16 -34 -11 -50 -28 -52 -434
-49 -414 3 -405 2 -371 67 11 20 29 59 41 86 11 28 32 75 46 105 14 30 31 69
38 85 7 17 26 58 44 93 17 34 31 68 31 75 0 6 21 52 45 102 25 49 45 97 45
106 0 9 7 22 15 29 8 7 15 18 15 25 0 7 13 39 30 71 16 32 30 63 30 68 0 5 14
39 31 75 17 36 37 80 44 96 8 17 28 60 44 98 17 37 31 71 31 76 0 5 7 14 15
21 8 7 15 21 15 30 0 10 6 31 14 47 60 120 76 156 76 173 0 11 4 20 10 20 5 0
13 12 16 26 4 15 20 52 35 83 16 31 29 59 29 63 0 4 14 36 30 71 17 36 30 70
30 76 0 6 4 11 9 11 5 0 12 12 16 28 3 15 20 55 36 90 16 34 29 66 29 71 0 5
7 14 15 21 8 7 15 19 15 28 0 9 9 36 21 61 50 108 72 158 85 186 7 17 26 59
43 95 16 36 42 92 56 125 15 33 35 77 46 98 10 21 19 42 19 48 0 5 20 52 45
103 25 52 45 97 45 101 0 3 20 49 45 101 25 51 45 97 45 100 0 4 12 32 26 63
36 77 64 140 80 176 7 17 27 62 45 100 18 39 38 84 44 100 7 17 27 58 44 93
17 35 31 72 31 83 0 10 4 19 9 19 4 0 16 21 26 48 10 26 26 61 36 78 11 17 19
40 19 51 0 12 7 26 15 33 8 7 15 19 15 26 0 7 14 39 30 69 17 30 30 60 30 65
0 6 14 40 31 77 32 71 38 85 89 198 73 160 94 210 114 258 15 38 22 42 50 31z"/>
<path d="M4465 5488 c-4 -18 -20 -56 -36 -85 -16 -30 -29 -60 -29 -67 0 -8 -6
-27 -14 -43 -8 -15 -22 -46 -31 -68 -9 -22 -23 -52 -31 -67 -7 -14 -14 -33
-14 -41 0 -9 -6 -28 -14 -44 -23 -44 -46 -100 -46 -111 0 -5 -7 -15 -15 -22
-8 -7 -15 -20 -15 -30 0 -18 -35 -103 -71 -173 -10 -21 -19 -44 -19 -51 0 -8
-6 -27 -14 -43 -8 -15 -22 -46 -31 -68 -9 -22 -23 -52 -31 -67 -7 -14 -14 -33
-14 -41 0 -9 -6 -28 -14 -44 -35 -69 -76 -161 -76 -171 0 -6 -8 -25 -17 -44
-32 -65 -33 -66 -17 -72 24 -9 1137 -7 1152 3 10 6 8 18 -12 56 -15 26 -26 54
-26 62 0 8 -6 27 -14 41 -8 15 -29 61 -46 102 -18 41 -38 89 -45 105 -7 17
-27 66 -45 110 -18 44 -40 98 -50 120 -10 22 -26 62 -35 88 -10 26 -22 50 -26
53 -5 3 -9 14 -9 26 0 11 -7 32 -15 46 -8 15 -24 50 -35 77 -12 28 -25 59 -30
70 -4 11 -25 61 -45 110 -21 50 -41 94 -46 100 -5 5 -9 18 -9 30 0 11 -6 29
-13 40 -8 11 -24 48 -36 83 -27 72 -54 84 -66 30z"/>
</g>
</svg>
